<svg width="63" height="70" viewBox="0 0 63 70" fill="none" xmlns="http://www.w3.org/2000/svg">
<path d="M61.6766 0.972871C61.1215 0.353506 60.3297 0 59.5 0H2.92154C2.09182 0 1.30009 0.353506 0.744996 0.972871C0.189904 1.59224 -0.073034 2.41903 0.0175336 3.24291L6.45076 61.1565C6.5793 62.3339 7.41194 63.3185 8.55134 63.6427L30.4044 69.8861C30.6674 69.962 30.9391 70 31.2079 70C31.4766 70 31.7483 69.962 32.0113 69.8861L53.8644 63.6427C55.0038 63.3185 55.8335 62.3339 55.9649 61.1565L62.4011 3.24291C62.4946 2.41903 62.2316 1.59224 61.6766 0.972871ZM47.326 29.4316L46.023 50.7149L31.3043 55.5267L16.5856 50.7149L16.0276 40.5363H23.4775L23.6644 45.164L31.3043 47.7554L38.9441 45.164L39.5021 36.8376H23.1064L22.7354 29.4345H39.876L40.4341 22.0313H14.7216L14.1636 14.6252H48.2579L47.326 29.4316Z" fill="#333333"/>
</svg>
