<svg width="55" height="70" viewBox="0 0 55 70" fill="none" xmlns="http://www.w3.org/2000/svg">
<path d="M25.0966 0V19.0078C23.818 18.4882 21.0585 18.4248 19.6987 18.4248C9.46928 18.4248 0 23.2374 0 36.8497C0 53.1372 12.8257 55.2745 21.4117 55.2745C24.8019 55.2745 32.4666 54.9397 36.1516 53.8711V0H25.0966ZM43.5215 0V11.0549H54.5764V0H43.5215ZM43.5215 18.4248V50.4884C43.5215 56.0748 40.1239 61.8897 32.4666 65.2283L43.0033 70C53.7118 66.315 54.5764 54.1734 54.5764 50.4884V18.4248H43.5215ZM21.3037 27.8244C22.4829 27.8244 23.8069 28.0406 25.0966 28.3354V45.6663C23.8069 45.9611 22.4829 46.1845 21.3037 46.1845C16.4764 46.1845 11.7962 44.6618 11.7962 36.8497C11.7962 29.0376 16.4764 27.8244 21.3037 27.8244Z" fill="#333333"/>
</svg>
