<svg width="63" height="70" viewBox="0 0 63 70" fill="none" xmlns="http://www.w3.org/2000/svg">
<path d="M61.6766 0.972871C61.1215 0.353506 60.3297 0 59.5 0H2.92154C2.09182 0 1.30009 0.353506 0.744996 0.972871C0.189904 1.59224 -0.073034 2.41903 0.0175336 3.24291L6.45076 61.1565C6.5793 62.3339 7.41194 63.3185 8.55134 63.6427L30.4044 69.8861C30.6674 69.962 30.9391 70 31.2078 70C31.4766 70 31.7483 69.962 32.0113 69.8861L53.8644 63.6427C55.0038 63.3185 55.8335 62.3339 55.965 61.1565L62.4011 3.24291C62.4946 2.41903 62.2316 1.59224 61.6766 0.972871ZM47.6561 21.707H21.5668L22.1862 29.1336H47.028L45.164 51.0743L31.2195 55.5092L31.0822 55.4654L17.2926 51.0684L16.5388 42.1286H23.2934L23.5885 45.6023L31.2926 47.2997L38.8623 45.5993L39.6657 36.2124H16.0305L14.2016 14.6077H48.2638L47.6561 21.707Z" fill="#333333"/>
</svg>
