<svg width="70" height="70" viewBox="0 0 70 70" fill="none" xmlns="http://www.w3.org/2000/svg">
<path d="M63.6364 0H6.36364C2.84773 0 0 2.84773 0 6.36364V63.6364C0 67.1523 2.84773 70 6.36364 70H63.6364C67.1523 70 70 67.1523 70 63.6364V6.36364C70 2.84773 67.1523 0 63.6364 0ZM35 52.1182C35 57.7723 31.5318 60.9414 25.7727 60.9414C20.0836 60.9414 16.4595 57.6164 16.4595 52.2391H22.6227C22.6386 54.2341 23.8286 55.4941 25.6677 55.4941C27.5577 55.4941 28.5727 54.3041 28.5727 52.0641V34.9936H35V52.1182ZM52.4395 60.9414C46.0473 60.9414 42.0255 57.9314 41.9173 53.0632H48.0455C48.2014 54.9023 50.0373 56.0732 52.7005 56.0732C55.0995 56.0732 56.7477 54.9182 56.7477 53.2541C56.7477 51.8541 55.6436 51.1 52.7545 50.5241L49.4295 49.8591C44.8064 48.9841 42.4264 46.4641 42.4264 42.49C42.4264 37.5518 46.3845 34.3127 52.4745 34.3127C58.3927 34.3127 62.4877 37.5168 62.5927 42.1909H56.6586C56.5186 40.4059 54.8195 39.1618 52.5573 39.1618C50.3014 39.1618 48.8155 40.2309 48.8155 41.9109C48.8155 43.295 49.9355 44.1 52.5955 44.625L55.8473 45.255C60.8395 46.2191 63.0795 48.475 63.0795 52.4841C63.0827 57.7564 59.0577 60.9414 52.4395 60.9414Z" fill="#333333"/>
</svg>
