<svg width="70" height="70" viewBox="0 0 70 70" fill="none" xmlns="http://www.w3.org/2000/svg">
<path d="M34.2391 0C21.0012 0 18.2609 6.83594 18.2609 10.7948V18.2609H33.4783V19.7826H10.7948C5.77191 19.7826 0 23.7415 0 35C0 46.2585 5.77191 50.2174 10.7948 50.2174H19.7826V41.087C19.7826 37.7403 22.5229 35 25.8696 35H44.1304C46.7162 35 48.6957 33.0206 48.6957 30.4348V10.7948C48.6957 5.46875 43.6727 0 34.2391 0ZM27.3913 7.6087C29.0676 7.6087 30.4348 8.97588 30.4348 10.6522C30.4348 12.3285 29.0676 13.6957 27.3913 13.6957C25.715 13.6957 24.3478 12.3285 24.3478 10.6522C24.3478 8.97588 25.715 7.6087 27.3913 7.6087ZM50.2174 19.7826V30.4348C50.2174 33.7814 47.4771 36.5217 44.1304 36.5217H25.8696C23.2838 36.5217 21.3043 38.5012 21.3043 41.087V59.2052C21.3043 64.5312 26.3273 70 35.7609 70C48.9988 70 51.7391 63.1641 51.7391 59.2052V51.7391H36.5217V50.2174H59.2052C64.2281 50.2174 70 46.2585 70 35C70 23.7415 64.2281 19.7826 59.2052 19.7826H50.2174ZM42.6087 56.3043C44.285 56.3043 45.6522 57.6715 45.6522 59.3478C45.6522 61.0241 44.285 62.3913 42.6087 62.3913C40.9324 62.3913 39.5652 61.0241 39.5652 59.3478C39.5652 57.6715 40.9324 56.3043 42.6087 56.3043Z" fill="#333333"/>
</svg>
